<svg id="Layer_1" height="512" viewBox="0 0 512 512" width="512" xmlns="http://www.w3.org/2000/svg" data-name="Layer 1"><path d="m225.929 251.452a36.155 36.155 0 0 0 -36.081 35.92l-.12 27.039h-10.421a50.245 50.245 0 0 0 -50.188 50.189v87.213a50.245 50.245 0 0 0 50.188 50.187h32.515a50.245 50.245 0 0 0 50.188-50.188v-87.212a50.245 50.245 0 0 0 -50.188-50.188h-10.094l.12-26.985a24.081 24.081 0 0 1 48.162.107v1.382a36.122 36.122 0 0 0 36.081 36.084h.219a36.122 36.122 0 0 0 36.081-36.081v-44.17h29.209a6 6 0 0 0 6-6v-34.185a6 6 0 0 0 -5.641-5.982v-17.126l30.369-65.8a6 6 0 0 0 -.326-5.639l-59.264-97.142a6 6 0 0 0 -10.244 0l-59.265 97.143a6 6 0 0 0 -.326 5.639l30.369 65.8v17.126a6 6 0 0 0 -5.642 5.982v34.181a6 6 0 0 0 6 6h26.761v44.17a24.109 24.109 0 0 1 -24.081 24.084h-.219a24.109 24.109 0 0 1 -24.081-24.081v-1.382a36.122 36.122 0 0 0 -36.081-36.085zm-46.622 74.959h10.4v46.538h-48.588v-8.349a38.231 38.231 0 0 1 38.188-38.189zm32.515 163.589h-32.515a38.231 38.231 0 0 1 -38.188-38.188v-66.863h108.891v66.863a38.231 38.231 0 0 1 -38.188 38.188zm38.188-125.4v8.35h-48.31v-46.539h10.118a38.231 38.231 0 0 1 38.192 38.189zm89.95-166.035h-44.688v-12.426h44.688zm-22.344-94.625a12.038 12.038 0 1 1 -12.037 12.038 12.051 12.051 0 0 1 12.037-12.038zm-6-66.585v55.345a24.037 24.037 0 1 0 12 0v-55.345l46.476 76.18-27.971 60.6h-49.01l-27.971-60.6zm-21.986 173.209h55.97v22.181h-55.97z"/></svg>