<svg height="496pt" viewBox="0 0 496 496" width="496pt" xmlns="http://www.w3.org/2000/svg"><path d="m120 123.054688v89.890624l89.886719-44.945312zm16 25.890624 38.113281 19.054688-38.113281 19.054688zm0 0"/><path d="m48 198.246094 19.328125 4.824218-10.25 17.074219 42.777344 42.777344 17.074219-10.25 4.824218 19.328125h60.492188l4.824218-19.328125 17.074219 10.25 42.777344-42.777344-10.25-17.074219 19.328125-4.824218v-60.492188l-19.328125-4.824218 10.25-17.074219-42.777344-42.777344-17.074219 10.25-4.824218-19.328125h-60.492188l-4.824218 19.328125-17.074219-10.25-42.777344 42.777344 10.25 17.074219-19.328125 4.824218zm16-48 19.566406-4.886719 4.019532-9.773437-10.371094-17.265626 25.105468-25.105468 17.265626 10.371094 9.773437-4.019532 4.886719-19.566406h35.507812l4.886719 19.566406 9.773437 4.019532 17.265626-10.371094 25.105468 25.105468-10.371094 17.265626 4.019532 9.773437 19.566406 4.886719v35.507812l-15.59375 3.894532-4.269531 1.648437-3.730469 9.101563 10.371094 17.28125-25.105469 25.105468-17.265625-10.371094-9.773438 4.019532-4.878906 19.566406h-35.507812l-4.886719-19.566406-9.773437-4.019532-17.265626 10.371094-25.105468-25.105468 10.371094-17.28125-4-9.75-19.585938-4.894532zm0 0"/><path d="m496 32v-16c0-8.824219-7.175781-16-16-16h-464c-8.824219 0-16 7.175781-16 16v16c0 8.824219 7.175781 16 16 16v240c-8.824219 0-16 7.175781-16 16v16c0 8.824219 7.175781 16 16 16h108.695312l-43.070312 122.023438c-1.082031 3.046874-1.625 6.242187-1.625 9.488281 0 15.703125 12.785156 28.488281 28.488281 28.488281h4.976563c12.09375 0 22.894531-7.664062 26.886718-19.078125l49.328126-140.921875h26.320312v136c0 13.230469 10.769531 24 24 24h16c13.230469 0 24-10.769531 24-24v-136h26.320312l49.328126 140.921875c3.992187 11.414063 14.800781 19.078125 26.886718 19.078125h4.976563c15.703125 0 28.488281-12.785156 28.488281-28.488281 0-3.246094-.542969-6.441407-1.625-9.488281l-43.070312-122.023438h108.695312c8.824219 0 16-7.175781 16-16v-16c0-8.824219-7.175781-16-16-16v-240c8.824219 0 16-7.175781 16-16zm-480-16h464l.007812 16h-464.007812zm109.246094 455.640625c-1.742188 5-6.484375 8.359375-11.78125 8.359375h-4.976563c-6.886719 0-12.488281-5.601562-12.488281-12.488281 0-1.421875.238281-2.824219.710938-4.160157l44.945312-127.351562h31.0625zm138.753906.359375c0 4.40625-3.59375 8-8 8h-16c-4.40625 0-8-3.59375-8-8v-136h32zm135.289062-8.640625c.472657 1.328125.710938 2.730469.710938 4.152344 0 6.886719-5.601562 12.488281-12.488281 12.488281h-4.976563c-5.304687 0-10.039062-3.359375-11.792968-8.367188l-47.460938-135.632812h31.0625zm80.71875-143.359375h-464.007812v-16h464zm-16.007812-32h-432v-240h432zm0 0"/><path d="m448 128h-48v128h-16v-96h-48v96h-16v-64h-48v80h176zm-144 128h-16v-48h16zm48-80h16v80h-16zm80 80h-16v-112h16zm0 0"/><path d="m272 64h16v16h-16zm0 0"/><path d="m304 64h144v16h-144zm0 0"/><path d="m304 96h144v16h-144zm0 0"/><path d="m272 96h16v16h-16zm0 0"/></svg>